<?xml version="1.0" encoding="utf-8"?>
<!-- Generator: Adobe Illustrator 19.2.1, SVG Export Plug-In . SVG Version: 6.00 Build 0)  -->
<svg version="1.1" id="layer" xmlns="http://www.w3.org/2000/svg" xmlns:xlink="http://www.w3.org/1999/xlink" x="0px" y="0px"
	 viewBox="0 0 652 652" style="enable-background:new 0 0 652 652;" xml:space="preserve">
<style type="text/css">
	.st0{fill:#FFFFFF;}
	.st1{fill:#663399;}
</style>
<path d="M376.8,309.7h15.8v56.6h-15.8v-7.4c-5.7,8.5-13,9-17.5,9c-17.5,0-28.8-13.6-28.8-30c0-17,11.3-30,27.7-30
	c4.5,0,13,0.6,18.1,9v-7.4H376.8z M347.3,338c0,9,6.2,15.8,15.8,15.8c9,0,15.8-6.8,15.8-15.8s-6.2-15.8-15.8-15.8
	C354.1,322.1,347.3,328.9,347.3,338z M423.7,323.3v43h-15.8v-43h-6.2v-13.6h6.2v-19.2h15.8v19.2h10.7v13.6H423.7z M471.8,323.3
	c-4-3.4-7.4-4-9-4c-4,0-6.2,1.7-6.2,4.5c0,1.7,0.6,3.4,5.1,5.1l4,1.1c4.5,1.7,11.3,3.4,14.1,7.9c1.7,2.3,2.8,5.7,2.8,9.6
	c0,5.1-1.7,10.2-6.2,14.1s-10.2,6.2-17,6.2c-11.9,0-18.1-5.7-22.1-9.6l8.5-9.6c3.4,3.4,7.9,6.8,12.4,6.8c4.5,0,7.9-2.3,7.9-6.2
	c0-3.4-2.8-5.1-5.1-5.7l-3.4-1.1c-4-1.7-8.5-3.4-11.9-6.8c-2.8-2.8-4.5-6.2-4.5-10.7c0-5.7,2.8-10.2,5.7-13c4.5-3.4,10.2-4,14.7-4
	c4,0,10.7,0.6,18.1,6.2C479.7,314.2,471.8,323.3,471.8,323.3z M506.3,317c5.7-7.9,13.6-9,18.1-9c16.4,0,27.7,13,27.7,30
	c0,17-11.3,30-28.3,30c-3.4,0-11.9-0.6-18.1-9v7.4h-15.3v-95h15.8C506.3,271.2,506.3,317,506.3,317z M504.6,338
	c0,9,6.2,15.8,15.8,15.8c9,0,15.8-6.8,15.8-15.8s-6.2-15.8-15.8-15.8C510.8,322.1,504.6,328.9,504.6,338z M578.1,357.8l-27.1-48.1
	h18.7l17.5,32.2l15.8-32.2H621l-45.2,86.5h-18.1C557.7,396.2,578.1,357.8,578.1,357.8z M326.4,319.3h-39.6v15.8h20.9
	c-3.4,10.7-11.3,18.1-26,18.1c-16.4,0-28.3-13.6-28.3-30s11.3-30.5,27.7-30.5c9,0,18.1,4.5,23.8,11.9l13-8.5
	c-8.5-11.9-22.1-18.7-36.8-18.7c-24.9,0-45.2,20.4-45.2,45.8s19.2,45.8,45.2,45.8s45.2-20.4,45.2-45.8
	C327,321.6,326.4,320.4,326.4,319.3z"/>
<path class="st0" d="M162.4,321h-39.6v11.3H150c-4,17-16.4,31.1-32.8,36.8l-65-65c6.8-19.8,26-33.9,48.1-33.9
	c17,0,32.2,8.5,41.8,21.5l8.5-7.4c-11.3-15.3-29.4-25.4-50.3-25.4c-29.4,0-54.3,20.9-60.5,48.6l74.6,74.6
	C141.5,375.3,162.4,350.4,162.4,321z M38,321.6c0,15.8,6.2,31.1,18.1,43c11.9,11.9,27.7,18.1,43,18.1L38,321.6z"/>
<path class="st1" d="M100.2,241.8C56.7,241.8,21,277.5,21,321s35.6,79.2,79.2,79.2s79.2-35.6,79.2-79.2S143.8,241.8,100.2,241.8z
	 M56.1,365.1c-11.9-11.9-18.1-27.7-18.1-43l61.6,61.1C83.8,382.6,68,377,56.1,365.1z M113.8,381.5l-74.1-74.1
	c6.2-27.7,31.1-48.6,60.5-48.6c20.9,0,39,10.2,50.3,25.4l-8.5,7.4c-9.6-13-24.9-21.5-41.8-21.5c-22.1,0-40.7,14.1-48.1,33.9l65,65
	c16.4-5.7,28.8-19.8,32.8-36.8h-27.1V321h39.6C162.4,350.4,141.5,375.3,113.8,381.5z"/>
</svg>
